<?xml version="1.0" standalone="no"?><!DOCTYPE svg PUBLIC "-//W3C//DTD SVG 1.1//EN" "http://www.w3.org/Graphics/SVG/1.1/DTD/svg11.dtd"><svg t="1686127201735" class="icon" viewBox="0 0 1024 1024" version="1.1" xmlns="http://www.w3.org/2000/svg" p-id="1165" xmlns:xlink="http://www.w3.org/1999/xlink" width="200" height="200"><path d="M281.92511 783.569604a367.2576 367.2576 0 1 0 281.086797-678.60356 367.2576 367.2576 0 1 0-281.086797 678.60356Z" fill="#6CCE25" p-id="1166"></path><path d="M238.0288 542.3616v35.84c0 202.496 164.7616 367.2576 367.2576 367.2576s367.2576-164.7616 367.2576-367.2576v-35.84H238.0288z" fill="#ACED7A" p-id="1167"></path><path d="M422.4512 306.5856c-51.5584 0-99.3792-30.0032-121.856-76.4416l64.512-31.1808c10.752 22.1696 32.6656 35.9936 57.2928 35.9936a63.488 63.488 0 0 0 56.5248-34.3552l63.5904 33.024a134.81984 134.81984 0 0 1-120.064 72.96zM788.3264 584.96c0 36.7104-11.0592 70.8608-29.9008 99.3792l-138.0352-141.9264h-30.5152l-133.5296 140.3904a179.3536 179.3536 0 0 1-28.928-97.8432h-71.68c0 139.0592 113.1008 252.16 252.16 252.16s252.16-113.1008 252.16-252.16h-71.7312z m-218.9312 176.2816c-22.8864-5.0176-44.1856-14.336-62.976-27.136l62.976-66.2016v93.3376z m71.68-94.7712l66.7648 68.6592a179.64032 179.64032 0 0 1-66.7648 27.1872v-95.8464z" fill="#FFFFFF" p-id="1168"></path></svg>